<svg xmlns="http://www.w3.org/2000/svg" version="1.1" xmlns:xlink="http://www.w3.org/1999/xlink" xmlns:svgjs="http://svgjs.dev/svgjs" width="2000" height="1500" viewBox="0 0 2000 1500"><rect width="2000" height="1500" fill="#000000"></rect><g transform="matrix(0.75,0,0,0.75,249.090909090909,282.7536437246963)"><svg viewBox="0 0 396 247" data-background-color="#000000" preserveAspectRatio="xMidYMid meet" height="1247" width="2000" xmlns="http://www.w3.org/2000/svg" xmlns:xlink="http://www.w3.org/1999/xlink"><g id="tight-bounds" transform="matrix(1,0,0,1,0.2400000000000091,-0.09999999999999432)"><svg viewBox="0 0 395.52 247.2" height="247.2" width="395.52"><rect width="395.52" height="247.2" fill="url(#ed8987e7-38b2-4d94-9402-81edf1ceee15)" mask="url(#ce033dbe-21d3-40cb-a85a-3324fe4285d9)" data-fill-palette-color="tertiary"></rect><g><svg></svg></g><g><svg viewBox="0 0 395.52 247.2" height="247.2" width="395.52"><g transform="matrix(1,0,0,1,78.73356553131939,47.215199999999996)"><svg viewBox="0 0 238.0528689373612 152.7696" height="152.7696" width="238.0528689373612"><g><svg viewBox="0 0 238.0528689373612 152.7696" height="152.7696" width="238.0528689373612"><g><svg viewBox="0 0 238.0528689373612 152.7696" height="152.7696" width="238.0528689373612"><g transform="matrix(1,0,0,1,113.21502416124179,0)"><svg viewBox="0 0 124.83784477611941 152.7696" height="152.7696" width="124.83784477611941"><g id="textblocktransform"><svg viewBox="0 0 124.83784477611941 152.7696" height="152.7696" width="124.83784477611941" id="textblock"><g><svg viewBox="0 0 124.83784477611941 152.7696" height="152.7696" width="124.83784477611941"><g transform="matrix(1,0,0,1,0,0)"><svg width="124.83784477611941" viewBox="2.6 -32.55 27.38 33.5" height="152.7696" data-palette-color="url(#2a7728f0-752d-4620-b8eb-9138378029e6)"></svg></g></svg></g></svg></g></svg></g><g transform="matrix(1,0,0,1,0,45.25679670468507)"><svg viewBox="0 0 77.1497880716418 62.256006590629845" height="62.256006590629845" width="77.1497880716418"><g><svg xmlns="http://www.w3.org/2000/svg" xmlns:xlink="http://www.w3.org/1999/xlink" version="1.1" x="0" y="0" viewBox="27.993 33.022999999999996 42.735000000000014 34.485" enable-background="new 0 0 100 100" xml:space="preserve" height="62.256006590629845" width="77.1497880716418" class="icon-icon-0" data-fill-palette-color="accent" id="icon-0"></svg></g></svg></g></svg></g></svg></g></svg></g><path d="M261.035 41.215L261.035 0 13.835 0 13.835 247.2 261.035 247.2 261.035 205.985 247.258 205.985 247.258 233.423 27.612 233.423 27.612 13.777 247.258 13.777 247.258 41.215Z" fill="url(#ed8987e7-38b2-4d94-9402-81edf1ceee15)" stroke="transparent" data-fill-palette-color="tertiary"></path></svg></g><defs></defs><mask id="fbedac2c-3b53-4ef1-ba83-e395bce043fa"><g id="SvgjsG1139"><svg viewBox="0 0 395.52 247.2" height="247.2" width="395.52"><g><svg></svg></g><g><svg viewBox="0 0 395.52 247.2" height="247.2" width="395.52"><g transform="matrix(1,0,0,1,78.73356553131939,47.215199999999996)"><svg viewBox="0 0 238.0528689373612 152.7696" height="152.7696" width="238.0528689373612"><g><svg viewBox="0 0 238.0528689373612 152.7696" height="152.7696" width="238.0528689373612"><g><svg viewBox="0 0 238.0528689373612 152.7696" height="152.7696" width="238.0528689373612"><g transform="matrix(1,0,0,1,113.21502416124179,0)"><svg viewBox="0 0 124.83784477611941 152.7696" height="152.7696" width="124.83784477611941"><g id="SvgjsG1138"><svg viewBox="0 0 124.83784477611941 152.7696" height="152.7696" width="124.83784477611941" id="SvgjsSvg1137"><g><svg viewBox="0 0 124.83784477611941 152.7696" height="152.7696" width="124.83784477611941"><g transform="matrix(1,0,0,1,0,0)"><svg width="124.83784477611941" viewBox="2.6 -32.55 27.38 33.5" height="152.7696" data-palette-color="url(#2a7728f0-752d-4620-b8eb-9138378029e6)"><path d="M19.8-2.48L29.98-2.7 29.98 0.95 16.48 0.6Q9.28 0.4 5.94-2.86 2.6-6.13 2.6-12.3L2.6-12.3 2.6-19.68Q2.6-25.88 5.75-29.21 8.9-32.55 14.95-32.55L14.95-32.55Q19-32.55 21.75-31.06 24.5-29.58 25.9-26.7 27.3-23.83 27.3-19.68L27.3-19.68 27.3-12.9Q27.3-10.45 26.75-8.64 26.2-6.83 25.21-5.6 24.23-4.38 22.88-3.65 21.53-2.93 19.88-2.65L19.88-2.65 19.8-2.48ZM15.75-2.88L15.75-2.88 16.3-2.88Q17.7-3.15 18.94-3.81 20.18-4.48 21.11-5.58 22.05-6.68 22.58-8.3 23.1-9.93 23.1-12.13L23.1-12.13 23.1-19.85Q23.1-24.3 21.05-26.69 19-29.08 14.95-29.08L14.95-29.08Q10.93-29.08 8.88-26.69 6.83-24.3 6.83-19.85L6.83-19.85 6.83-12.13Q6.83-7.73 9.15-5.38 11.48-3.03 15.75-2.88Z" opacity="1" transform="matrix(1,0,0,1,0,0)" fill="white" class="wordmark-text-0" id="SvgjsPath1136"></path></svg></g></svg></g></svg></g></svg></g><g transform="matrix(1,0,0,1,0,45.25679670468507)"><svg viewBox="0 0 77.1497880716418 62.256006590629845" height="62.256006590629845" width="77.1497880716418"><g><svg xmlns="http://www.w3.org/2000/svg" xmlns:xlink="http://www.w3.org/1999/xlink" version="1.1" x="0" y="0" viewBox="27.993 33.022999999999996 42.735000000000014 34.485" enable-background="new 0 0 100 100" xml:space="preserve" height="62.256006590629845" width="77.1497880716418" class="icon-icon-0" data-fill-palette-color="accent" id="SvgjsSvg1135"><path d="M27.993 35.58l7.305 7.303-7.305 7.306 2.557 2.557 9.863-9.862-9.863-9.861L27.993 35.58zM42.148 47.975v3.617h28.58v-3.617H42.148zM42.148 59.55h28.58v-3.617h-28.58V59.55zM42.148 67.508h14.29v-3.617h-14.29V67.508z" fill="black"></path></svg></g></svg></g></svg></g></svg></g></svg></g><path d="M261.035 41.215L261.035 0 13.835 0 13.835 247.2 261.035 247.2 261.035 205.985 247.258 205.985 247.258 233.423 27.612 233.423 27.612 13.777 247.258 13.777 247.258 41.215Z" fill="black" stroke="transparent"></path></svg></g><defs><mask></mask></defs></svg><rect width="395.52" height="247.2" fill="black" stroke="none" visibility="hidden"></rect></g></mask><linearGradient x1="0" x2="1" y1="0.578" y2="0.595" id="2a7728f0-752d-4620-b8eb-9138378029e6"><stop stop-color="#6ee2f5" offset="0"></stop><stop stop-color="#6454f0" offset="1"></stop></linearGradient><rect width="395.52" height="247.2" fill="url(#2a7728f0-752d-4620-b8eb-9138378029e6)" mask="url(#fbedac2c-3b53-4ef1-ba83-e395bce043fa)" data-fill-palette-color="primary"></rect><mask id="4a5b0049-600a-40fc-9480-227c890c2294"><g id="SvgjsG1158"><svg viewBox="0 0 395.52 247.2" height="247.2" width="395.52"><g><svg></svg></g><g><svg viewBox="0 0 395.52 247.2" height="247.2" width="395.52"><g transform="matrix(1,0,0,1,78.73356553131939,47.215199999999996)"><svg viewBox="0 0 238.0528689373612 152.7696" height="152.7696" width="238.0528689373612"><g><svg viewBox="0 0 238.0528689373612 152.7696" height="152.7696" width="238.0528689373612"><g><svg viewBox="0 0 238.0528689373612 152.7696" height="152.7696" width="238.0528689373612"><g transform="matrix(1,0,0,1,113.21502416124179,0)"><svg viewBox="0 0 124.83784477611941 152.7696" height="152.7696" width="124.83784477611941"><g id="SvgjsG1157"><svg viewBox="0 0 124.83784477611941 152.7696" height="152.7696" width="124.83784477611941" id="SvgjsSvg1156"><g><svg viewBox="0 0 124.83784477611941 152.7696" height="152.7696" width="124.83784477611941"><g transform="matrix(1,0,0,1,0,0)"><svg width="124.83784477611941" viewBox="2.6 -32.55 27.38 33.5" height="152.7696" data-palette-color="url(#2a7728f0-752d-4620-b8eb-9138378029e6)"></svg></g></svg></g></svg></g></svg></g><g transform="matrix(1,0,0,1,0,45.25679670468507)"><svg viewBox="0 0 77.1497880716418 62.256006590629845" height="62.256006590629845" width="77.1497880716418"><g><svg xmlns="http://www.w3.org/2000/svg" xmlns:xlink="http://www.w3.org/1999/xlink" version="1.1" x="0" y="0" viewBox="27.993 33.022999999999996 42.735000000000014 34.485" enable-background="new 0 0 100 100" xml:space="preserve" height="62.256006590629845" width="77.1497880716418" class="icon-icon-0" data-fill-palette-color="accent" id="SvgjsSvg1155"><path d="M27.993 35.58l7.305 7.303-7.305 7.306 2.557 2.557 9.863-9.862-9.863-9.861L27.993 35.58zM42.148 47.975v3.617h28.58v-3.617H42.148zM42.148 59.55h28.58v-3.617h-28.58V59.55zM42.148 67.508h14.29v-3.617h-14.29V67.508z" fill="white"></path></svg></g></svg></g></svg></g></svg></g></svg></g><path d="M261.035 41.215L261.035 0 13.835 0 13.835 247.2 261.035 247.2 261.035 205.985 247.258 205.985 247.258 233.423 27.612 233.423 27.612 13.777 247.258 13.777 247.258 41.215Z" fill="black" stroke="transparent"></path></svg></g><defs><mask></mask></defs><mask><g id="SvgjsG1154"><svg viewBox="0 0 395.52 247.2" height="247.2" width="395.52"><g><svg></svg></g><g><svg viewBox="0 0 395.52 247.2" height="247.2" width="395.52"><g transform="matrix(1,0,0,1,78.73356553131939,47.215199999999996)"><svg viewBox="0 0 238.0528689373612 152.7696" height="152.7696" width="238.0528689373612"><g><svg viewBox="0 0 238.0528689373612 152.7696" height="152.7696" width="238.0528689373612"><g><svg viewBox="0 0 238.0528689373612 152.7696" height="152.7696" width="238.0528689373612"><g transform="matrix(1,0,0,1,113.21502416124179,0)"><svg viewBox="0 0 124.83784477611941 152.7696" height="152.7696" width="124.83784477611941"><g id="SvgjsG1153"><svg viewBox="0 0 124.83784477611941 152.7696" height="152.7696" width="124.83784477611941" id="SvgjsSvg1152"><g><svg viewBox="0 0 124.83784477611941 152.7696" height="152.7696" width="124.83784477611941"><g transform="matrix(1,0,0,1,0,0)"><svg width="124.83784477611941" viewBox="2.6 -32.55 27.38 33.5" height="152.7696" data-palette-color="url(#2a7728f0-752d-4620-b8eb-9138378029e6)"><path d="M19.8-2.48L29.98-2.7 29.98 0.95 16.48 0.6Q9.28 0.4 5.94-2.86 2.6-6.13 2.6-12.3L2.6-12.3 2.6-19.68Q2.6-25.88 5.75-29.21 8.9-32.55 14.95-32.55L14.95-32.55Q19-32.55 21.75-31.06 24.5-29.58 25.9-26.7 27.3-23.83 27.3-19.68L27.3-19.68 27.3-12.9Q27.3-10.45 26.75-8.64 26.2-6.83 25.21-5.6 24.23-4.38 22.88-3.65 21.53-2.93 19.88-2.65L19.88-2.65 19.8-2.48ZM15.75-2.88L15.75-2.88 16.3-2.88Q17.7-3.15 18.94-3.81 20.18-4.48 21.11-5.58 22.05-6.68 22.58-8.3 23.1-9.93 23.1-12.13L23.1-12.13 23.1-19.85Q23.1-24.3 21.05-26.69 19-29.08 14.95-29.08L14.95-29.08Q10.93-29.08 8.88-26.69 6.83-24.3 6.83-19.85L6.83-19.85 6.83-12.13Q6.83-7.73 9.15-5.38 11.48-3.03 15.75-2.88Z" opacity="1" transform="matrix(1,0,0,1,0,0)" fill="black" class="wordmark-text-0" id="SvgjsPath1151"></path></svg></g></svg></g></svg></g></svg></g><g transform="matrix(1,0,0,1,0,45.25679670468507)"><svg viewBox="0 0 77.1497880716418 62.256006590629845" height="62.256006590629845" width="77.1497880716418"><g><svg xmlns="http://www.w3.org/2000/svg" xmlns:xlink="http://www.w3.org/1999/xlink" version="1.1" x="0" y="0" viewBox="27.993 33.022999999999996 42.735000000000014 34.485" enable-background="new 0 0 100 100" xml:space="preserve" height="62.256006590629845" width="77.1497880716418" class="icon-icon-0" data-fill-palette-color="accent" id="SvgjsSvg1150"><path d="M27.993 35.58l7.305 7.303-7.305 7.306 2.557 2.557 9.863-9.862-9.863-9.861L27.993 35.58zM42.148 47.975v3.617h28.58v-3.617H42.148zM42.148 59.55h28.58v-3.617h-28.58V59.55zM42.148 67.508h14.29v-3.617h-14.29V67.508z" fill="black"></path></svg></g></svg></g></svg></g></svg></g></svg></g><path d="M261.035 41.215L261.035 0 13.835 0 13.835 247.2 261.035 247.2 261.035 205.985 247.258 205.985 247.258 233.423 27.612 233.423 27.612 13.777 247.258 13.777 247.258 41.215Z" fill="black" stroke="transparent"></path></svg></g><defs><mask></mask></defs></svg><rect width="395.52" height="247.2" fill="black" stroke="none" visibility="hidden"></rect></g></mask></svg><rect width="395.52" height="247.2" fill="black" stroke="none" visibility="hidden"></rect></g></mask><linearGradient x1="0" x2="1" y1="0.578" y2="0.595" id="5d22d64b-cc4e-4efe-8d55-94e2a4673caf"><stop stop-color="#6ee2f5" offset="0"></stop><stop stop-color="#6454f0" offset="1"></stop></linearGradient><rect width="395.52" height="247.2" fill="url(#5d22d64b-cc4e-4efe-8d55-94e2a4673caf)" mask="url(#4a5b0049-600a-40fc-9480-227c890c2294)" data-fill-palette-color="accent"></rect><mask id="ce033dbe-21d3-40cb-a85a-3324fe4285d9"><g id="SvgjsG1176"><svg viewBox="0 0 395.52 247.2" height="247.2" width="395.52"><g><svg></svg></g><g><svg viewBox="0 0 395.52 247.2" height="247.2" width="395.52"><g transform="matrix(1,0,0,1,78.73356553131939,47.215199999999996)"><svg viewBox="0 0 238.0528689373612 152.7696" height="152.7696" width="238.0528689373612"><g><svg viewBox="0 0 238.0528689373612 152.7696" height="152.7696" width="238.0528689373612"><g><svg viewBox="0 0 238.0528689373612 152.7696" height="152.7696" width="238.0528689373612"><g transform="matrix(1,0,0,1,113.21502416124179,0)"><svg viewBox="0 0 124.83784477611941 152.7696" height="152.7696" width="124.83784477611941"><g id="SvgjsG1175"><svg viewBox="0 0 124.83784477611941 152.7696" height="152.7696" width="124.83784477611941" id="SvgjsSvg1174"><g><svg viewBox="0 0 124.83784477611941 152.7696" height="152.7696" width="124.83784477611941"><g transform="matrix(1,0,0,1,0,0)"><svg width="124.83784477611941" viewBox="2.6 -32.55 27.38 33.5" height="152.7696" data-palette-color="url(#2a7728f0-752d-4620-b8eb-9138378029e6)"></svg></g></svg></g></svg></g></svg></g><g transform="matrix(1,0,0,1,0,45.25679670468507)"><svg viewBox="0 0 77.1497880716418 62.256006590629845" height="62.256006590629845" width="77.1497880716418"><g><svg xmlns="http://www.w3.org/2000/svg" xmlns:xlink="http://www.w3.org/1999/xlink" version="1.1" x="0" y="0" viewBox="27.993 33.022999999999996 42.735000000000014 34.485" enable-background="new 0 0 100 100" xml:space="preserve" height="62.256006590629845" width="77.1497880716418" class="icon-icon-0" data-fill-palette-color="accent" id="SvgjsSvg1173"></svg></g></svg></g></svg></g></svg></g></svg></g><path d="M261.035 41.215L261.035 0 13.835 0 13.835 247.2 261.035 247.2 261.035 205.985 247.258 205.985 247.258 233.423 27.612 233.423 27.612 13.777 247.258 13.777 247.258 41.215Z" fill="white" stroke="transparent"></path></svg></g><defs><mask></mask></defs><mask><g id="SvgjsG1172"><svg viewBox="0 0 395.52 247.2" height="247.2" width="395.52"><g><svg></svg></g><g><svg viewBox="0 0 395.52 247.2" height="247.2" width="395.52"><g transform="matrix(1,0,0,1,78.73356553131939,47.215199999999996)"><svg viewBox="0 0 238.0528689373612 152.7696" height="152.7696" width="238.0528689373612"><g><svg viewBox="0 0 238.0528689373612 152.7696" height="152.7696" width="238.0528689373612"><g><svg viewBox="0 0 238.0528689373612 152.7696" height="152.7696" width="238.0528689373612"><g transform="matrix(1,0,0,1,113.21502416124179,0)"><svg viewBox="0 0 124.83784477611941 152.7696" height="152.7696" width="124.83784477611941"><g id="SvgjsG1171"><svg viewBox="0 0 124.83784477611941 152.7696" height="152.7696" width="124.83784477611941" id="SvgjsSvg1170"><g><svg viewBox="0 0 124.83784477611941 152.7696" height="152.7696" width="124.83784477611941"><g transform="matrix(1,0,0,1,0,0)"><svg width="124.83784477611941" viewBox="2.6 -32.55 27.38 33.5" height="152.7696" data-palette-color="url(#2a7728f0-752d-4620-b8eb-9138378029e6)"><path d="M19.8-2.48L29.98-2.7 29.98 0.95 16.48 0.6Q9.28 0.4 5.94-2.86 2.6-6.13 2.6-12.3L2.6-12.3 2.6-19.68Q2.6-25.88 5.75-29.21 8.9-32.55 14.95-32.55L14.95-32.55Q19-32.55 21.75-31.06 24.5-29.58 25.9-26.7 27.3-23.83 27.3-19.68L27.3-19.68 27.3-12.9Q27.3-10.45 26.75-8.64 26.2-6.83 25.21-5.6 24.23-4.38 22.88-3.65 21.53-2.93 19.88-2.65L19.88-2.65 19.8-2.48ZM15.75-2.88L15.75-2.88 16.3-2.88Q17.7-3.15 18.94-3.81 20.18-4.48 21.11-5.58 22.05-6.68 22.58-8.3 23.1-9.93 23.1-12.13L23.1-12.13 23.1-19.85Q23.1-24.3 21.05-26.69 19-29.08 14.95-29.08L14.95-29.08Q10.93-29.08 8.88-26.69 6.83-24.3 6.83-19.85L6.83-19.85 6.83-12.13Q6.83-7.73 9.15-5.38 11.48-3.03 15.75-2.88Z" opacity="1" transform="matrix(1,0,0,1,0,0)" fill="black" class="wordmark-text-0" id="SvgjsPath1169"></path></svg></g></svg></g></svg></g></svg></g><g transform="matrix(1,0,0,1,0,45.25679670468507)"><svg viewBox="0 0 77.1497880716418 62.256006590629845" height="62.256006590629845" width="77.1497880716418"><g><svg xmlns="http://www.w3.org/2000/svg" xmlns:xlink="http://www.w3.org/1999/xlink" version="1.1" x="0" y="0" viewBox="27.993 33.022999999999996 42.735000000000014 34.485" enable-background="new 0 0 100 100" xml:space="preserve" height="62.256006590629845" width="77.1497880716418" class="icon-icon-0" data-fill-palette-color="accent" id="SvgjsSvg1168"><path d="M27.993 35.58l7.305 7.303-7.305 7.306 2.557 2.557 9.863-9.862-9.863-9.861L27.993 35.58zM42.148 47.975v3.617h28.58v-3.617H42.148zM42.148 59.55h28.58v-3.617h-28.58V59.55zM42.148 67.508h14.29v-3.617h-14.29V67.508z" fill="black"></path></svg></g></svg></g></svg></g></svg></g></svg></g><path d="M261.035 41.215L261.035 0 13.835 0 13.835 247.2 261.035 247.2 261.035 205.985 247.258 205.985 247.258 233.423 27.612 233.423 27.612 13.777 247.258 13.777 247.258 41.215Z" fill="black" stroke="transparent"></path></svg></g><defs><mask></mask></defs></svg><rect width="395.52" height="247.2" fill="black" stroke="none" visibility="hidden"></rect></g></mask><mask><g id="SvgjsG1167"><svg viewBox="0 0 395.52 247.2" height="247.2" width="395.52"><g><svg></svg></g><g><svg viewBox="0 0 395.52 247.2" height="247.2" width="395.52"><g transform="matrix(1,0,0,1,78.73356553131939,47.215199999999996)"><svg viewBox="0 0 238.0528689373612 152.7696" height="152.7696" width="238.0528689373612"><g><svg viewBox="0 0 238.0528689373612 152.7696" height="152.7696" width="238.0528689373612"><g><svg viewBox="0 0 238.0528689373612 152.7696" height="152.7696" width="238.0528689373612"><g transform="matrix(1,0,0,1,113.21502416124179,0)"><svg viewBox="0 0 124.83784477611941 152.7696" height="152.7696" width="124.83784477611941"><g id="SvgjsG1166"><svg viewBox="0 0 124.83784477611941 152.7696" height="152.7696" width="124.83784477611941" id="SvgjsSvg1165"><g><svg viewBox="0 0 124.83784477611941 152.7696" height="152.7696" width="124.83784477611941"><g transform="matrix(1,0,0,1,0,0)"><svg width="124.83784477611941" viewBox="2.6 -32.55 27.38 33.5" height="152.7696" data-palette-color="url(#2a7728f0-752d-4620-b8eb-9138378029e6)"></svg></g></svg></g></svg></g></svg></g><g transform="matrix(1,0,0,1,0,45.25679670468507)"><svg viewBox="0 0 77.1497880716418 62.256006590629845" height="62.256006590629845" width="77.1497880716418"><g><svg xmlns="http://www.w3.org/2000/svg" xmlns:xlink="http://www.w3.org/1999/xlink" version="1.1" x="0" y="0" viewBox="27.993 33.022999999999996 42.735000000000014 34.485" enable-background="new 0 0 100 100" xml:space="preserve" height="62.256006590629845" width="77.1497880716418" class="icon-icon-0" data-fill-palette-color="accent" id="SvgjsSvg1164"><path d="M27.993 35.58l7.305 7.303-7.305 7.306 2.557 2.557 9.863-9.862-9.863-9.861L27.993 35.58zM42.148 47.975v3.617h28.58v-3.617H42.148zM42.148 59.55h28.58v-3.617h-28.58V59.55zM42.148 67.508h14.29v-3.617h-14.29V67.508z" fill="black"></path></svg></g></svg></g></svg></g></svg></g></svg></g><path d="M261.035 41.215L261.035 0 13.835 0 13.835 247.2 261.035 247.2 261.035 205.985 247.258 205.985 247.258 233.423 27.612 233.423 27.612 13.777 247.258 13.777 247.258 41.215Z" fill="black" stroke="transparent"></path></svg></g><defs><mask></mask></defs><mask><g id="SvgjsG1163"><svg viewBox="0 0 395.52 247.2" height="247.2" width="395.52"><g><svg></svg></g><g><svg viewBox="0 0 395.52 247.2" height="247.2" width="395.52"><g transform="matrix(1,0,0,1,78.73356553131939,47.215199999999996)"><svg viewBox="0 0 238.0528689373612 152.7696" height="152.7696" width="238.0528689373612"><g><svg viewBox="0 0 238.0528689373612 152.7696" height="152.7696" width="238.0528689373612"><g><svg viewBox="0 0 238.0528689373612 152.7696" height="152.7696" width="238.0528689373612"><g transform="matrix(1,0,0,1,113.21502416124179,0)"><svg viewBox="0 0 124.83784477611941 152.7696" height="152.7696" width="124.83784477611941"><g id="SvgjsG1162"><svg viewBox="0 0 124.83784477611941 152.7696" height="152.7696" width="124.83784477611941" id="SvgjsSvg1161"><g><svg viewBox="0 0 124.83784477611941 152.7696" height="152.7696" width="124.83784477611941"><g transform="matrix(1,0,0,1,0,0)"><svg width="124.83784477611941" viewBox="2.6 -32.55 27.38 33.5" height="152.7696" data-palette-color="url(#2a7728f0-752d-4620-b8eb-9138378029e6)"><path d="M19.8-2.48L29.98-2.7 29.98 0.95 16.48 0.6Q9.28 0.4 5.94-2.86 2.6-6.13 2.6-12.3L2.6-12.3 2.6-19.68Q2.6-25.88 5.75-29.21 8.9-32.55 14.95-32.55L14.95-32.55Q19-32.55 21.75-31.06 24.5-29.58 25.9-26.7 27.3-23.83 27.3-19.68L27.3-19.68 27.3-12.9Q27.3-10.45 26.75-8.64 26.2-6.83 25.21-5.6 24.23-4.38 22.88-3.65 21.53-2.93 19.88-2.65L19.88-2.65 19.8-2.48ZM15.75-2.88L15.75-2.88 16.3-2.88Q17.7-3.15 18.94-3.81 20.18-4.48 21.11-5.58 22.05-6.68 22.58-8.3 23.1-9.93 23.1-12.13L23.1-12.13 23.1-19.85Q23.1-24.3 21.05-26.69 19-29.08 14.95-29.08L14.95-29.08Q10.93-29.08 8.88-26.69 6.83-24.3 6.83-19.85L6.83-19.85 6.83-12.13Q6.83-7.73 9.15-5.38 11.48-3.03 15.75-2.88Z" opacity="1" transform="matrix(1,0,0,1,0,0)" fill="black" class="wordmark-text-0" id="SvgjsPath1160"></path></svg></g></svg></g></svg></g></svg></g><g transform="matrix(1,0,0,1,0,45.25679670468507)"><svg viewBox="0 0 77.1497880716418 62.256006590629845" height="62.256006590629845" width="77.1497880716418"><g><svg xmlns="http://www.w3.org/2000/svg" xmlns:xlink="http://www.w3.org/1999/xlink" version="1.1" x="0" y="0" viewBox="27.993 33.022999999999996 42.735000000000014 34.485" enable-background="new 0 0 100 100" xml:space="preserve" height="62.256006590629845" width="77.1497880716418" class="icon-icon-0" data-fill-palette-color="accent" id="SvgjsSvg1159"><path d="M27.993 35.58l7.305 7.303-7.305 7.306 2.557 2.557 9.863-9.862-9.863-9.861L27.993 35.58zM42.148 47.975v3.617h28.58v-3.617H42.148zM42.148 59.55h28.58v-3.617h-28.58V59.55zM42.148 67.508h14.29v-3.617h-14.29V67.508z" fill="black"></path></svg></g></svg></g></svg></g></svg></g></svg></g><path d="M261.035 41.215L261.035 0 13.835 0 13.835 247.2 261.035 247.2 261.035 205.985 247.258 205.985 247.258 233.423 27.612 233.423 27.612 13.777 247.258 13.777 247.258 41.215Z" fill="black" stroke="transparent"></path></svg></g><defs><mask></mask></defs></svg><rect width="395.52" height="247.2" fill="black" stroke="none" visibility="hidden"></rect></g></mask></svg><rect width="395.52" height="247.2" fill="black" stroke="none" visibility="hidden"></rect></g></mask></svg><rect width="395.52" height="247.2" fill="black" stroke="none" visibility="hidden"></rect></g></mask><linearGradient x1="0" x2="1" y1="0.578" y2="0.595" id="ed8987e7-38b2-4d94-9402-81edf1ceee15"><stop stop-color="#6ee2f5" offset="0"></stop><stop stop-color="#6454f0" offset="1"></stop></linearGradient></svg><rect width="395.52" height="247.2" fill="none" stroke="none" visibility="hidden"></rect></g></svg></g></svg>