<svg xmlns="http://www.w3.org/2000/svg" version="1.1" xmlns:xlink="http://www.w3.org/1999/xlink" xmlns:svgjs="http://svgjs.dev/svgjs" width="1500" height="2806" viewBox="0 0 1500 2806"><g transform="matrix(1,0,0,1,0.6825032622879235,1.136032388663807)"><svg viewBox="0 0 132 247" data-background-color="#293040" preserveAspectRatio="xMidYMid meet" height="2806" width="1500" xmlns="http://www.w3.org/2000/svg" xmlns:xlink="http://www.w3.org/1999/xlink"><g id="tight-bounds" transform="matrix(1,0,0,1,-0.06006028708134181,-0.09999999999999432)"><svg viewBox="0 0 132.12012057416266 247.2" height="247.2" width="132.12012057416266"><rect width="132.12012057416266" height="247.2" fill="url(#ff5ec6ac-c8f2-4333-bf24-735ff4d34ba4)" mask="url(#adc99e9f-c5ae-4ee7-a7e5-05e51fe391fd)" data-fill-palette-color="tertiary"></rect><g><svg></svg></g><g><svg viewBox="0 0 132.12012057416266 247.2" height="247.2" width="132.12012057416266"><g transform="matrix(1,0,0,1,0,47.215199999999996)"><svg viewBox="0 0 132.12012057416266 152.7696" height="152.7696" width="132.12012057416266"><g><svg viewBox="0 0 132.12012057416266 152.7696" height="152.7696" width="132.12012057416266"><g><svg viewBox="0 0 132.12012057416266 152.7696" height="152.7696" width="132.12012057416266"><g><svg viewBox="0 0 132.12012057416266 152.7696" height="152.7696" width="132.12012057416266"><g id="textblocktransform"><svg viewBox="0 0 132.12012057416266 152.7696" height="152.7696" width="132.12012057416266" id="textblock"><g><svg viewBox="0 0 132.12012057416266 152.7696" height="152.7696" width="132.12012057416266"><g transform="matrix(1,0,0,1,0,0)"><svg width="132.12012057416266" viewBox="2.8 -38.6 36.150000000000006 41.8" height="152.7696" data-palette-color="url(#954a1253-2680-41f7-8107-5750fbf7787f)"></svg></g></svg></g></svg></g></svg></g><g></g></svg></g></svg></g></svg></g><path d="M0 41.215L0 1 132.12 1 132.12 41.215 118.343 41.215 118.343 14.777 13.777 14.777 13.777 41.215 0 41.215M0 205.985L0 246.2 132.12 246.2 132.12 205.985 118.343 205.985 118.343 232.423 13.777 232.423 13.777 205.985 0 205.985" fill="url(#ff5ec6ac-c8f2-4333-bf24-735ff4d34ba4)" stroke="transparent" data-fill-palette-color="tertiary"></path></svg></g><defs></defs><mask id="6bc21107-8fcc-4a02-b507-1f2bef91f2f1"><g id="SvgjsG2641"><svg viewBox="0 0 132.12012057416266 247.2" height="247.2" width="132.12012057416266"><g><svg></svg></g><g><svg viewBox="0 0 132.12012057416266 247.2" height="247.2" width="132.12012057416266"><g transform="matrix(1,0,0,1,0,47.215199999999996)"><svg viewBox="0 0 132.12012057416266 152.7696" height="152.7696" width="132.12012057416266"><g><svg viewBox="0 0 132.12012057416266 152.7696" height="152.7696" width="132.12012057416266"><g><svg viewBox="0 0 132.12012057416266 152.7696" height="152.7696" width="132.12012057416266"><g><svg viewBox="0 0 132.12012057416266 152.7696" height="152.7696" width="132.12012057416266"><g id="SvgjsG2640"><svg viewBox="0 0 132.12012057416266 152.7696" height="152.7696" width="132.12012057416266" id="SvgjsSvg2639"><g><svg viewBox="0 0 132.12012057416266 152.7696" height="152.7696" width="132.12012057416266"><g transform="matrix(1,0,0,1,0,0)"><svg width="132.12012057416266" viewBox="2.8 -38.6 36.150000000000006 41.8" height="152.7696" data-palette-color="url(#954a1253-2680-41f7-8107-5750fbf7787f)"><path d="M38.95-18.9Q38.95-14 37.4-9.93 35.85-5.85 32.8-3.2L32.8-3.2 38.45 3.2 32.55 3.2 29.1-0.85Q25.55 0.85 20.9 0.85L20.9 0.85Q15.05 0.85 10.98-1.73 6.9-4.3 4.85-8.78 2.8-13.25 2.8-18.9L2.8-18.9Q2.8-24.45 4.85-28.9 6.9-33.35 10.98-35.98 15.05-38.6 20.9-38.6L20.9-38.6Q26.7-38.6 30.75-35.98 34.8-33.35 36.88-28.88 38.95-24.4 38.95-18.9L38.95-18.9ZM7.8-18.9Q7.8-14.45 9.3-10.95 10.8-7.45 13.75-5.43 16.7-3.4 20.9-3.4L20.9-3.4Q23.75-3.4 26.05-4.4L26.05-4.4 19.6-11.85 25.3-11.85 29.6-6.85Q31.7-8.95 32.83-12.1 33.95-15.25 33.95-19.05L33.95-19.05Q33.95-23.35 32.4-26.83 30.85-30.3 27.9-32.33 24.95-34.35 20.9-34.35L20.9-34.35Q16.7-34.35 13.75-32.3 10.8-30.25 9.3-26.75 7.8-23.25 7.8-18.9L7.8-18.9Z" opacity="1" transform="matrix(1,0,0,1,0,0)" fill="white" class="wordmark-text-0" id="SvgjsPath2638"></path></svg></g></svg></g></svg></g></svg></g><g></g></svg></g></svg></g></svg></g><path d="M0 41.215L0 1 132.12 1 132.12 41.215 118.343 41.215 118.343 14.777 13.777 14.777 13.777 41.215 0 41.215M0 205.985L0 246.2 132.12 246.2 132.12 205.985 118.343 205.985 118.343 232.423 13.777 232.423 13.777 205.985 0 205.985" fill="black" stroke="transparent"></path></svg></g><defs><mask></mask></defs></svg><rect width="132.12012057416266" height="247.2" fill="black" stroke="none" visibility="hidden"></rect></g></mask><linearGradient x1="0" x2="1" y1="0.578" y2="0.595" id="954a1253-2680-41f7-8107-5750fbf7787f"><stop stop-color="#6ee2f5" offset="0"></stop><stop stop-color="#6454f0" offset="1"></stop></linearGradient><rect width="132.12012057416266" height="247.2" fill="url(#954a1253-2680-41f7-8107-5750fbf7787f)" mask="url(#6bc21107-8fcc-4a02-b507-1f2bef91f2f1)" data-fill-palette-color="primary"></rect><mask id="adc99e9f-c5ae-4ee7-a7e5-05e51fe391fd"><g id="SvgjsG2648"><svg viewBox="0 0 132.12012057416266 247.2" height="247.2" width="132.12012057416266"><g><svg></svg></g><g><svg viewBox="0 0 132.12012057416266 247.2" height="247.2" width="132.12012057416266"><g transform="matrix(1,0,0,1,0,47.215199999999996)"><svg viewBox="0 0 132.12012057416266 152.7696" height="152.7696" width="132.12012057416266"><g><svg viewBox="0 0 132.12012057416266 152.7696" height="152.7696" width="132.12012057416266"><g><svg viewBox="0 0 132.12012057416266 152.7696" height="152.7696" width="132.12012057416266"><g><svg viewBox="0 0 132.12012057416266 152.7696" height="152.7696" width="132.12012057416266"><g id="SvgjsG2647"><svg viewBox="0 0 132.12012057416266 152.7696" height="152.7696" width="132.12012057416266" id="SvgjsSvg2646"><g><svg viewBox="0 0 132.12012057416266 152.7696" height="152.7696" width="132.12012057416266"><g transform="matrix(1,0,0,1,0,0)"><svg width="132.12012057416266" viewBox="2.8 -38.6 36.150000000000006 41.8" height="152.7696" data-palette-color="url(#954a1253-2680-41f7-8107-5750fbf7787f)"></svg></g></svg></g></svg></g></svg></g><g></g></svg></g></svg></g></svg></g><path d="M0 41.215L0 1 132.12 1 132.12 41.215 118.343 41.215 118.343 14.777 13.777 14.777 13.777 41.215 0 41.215M0 205.985L0 246.2 132.12 246.2 132.12 205.985 118.343 205.985 118.343 232.423 13.777 232.423 13.777 205.985 0 205.985" fill="white" stroke="transparent"></path></svg></g><defs><mask></mask></defs><mask><g id="SvgjsG2645"><svg viewBox="0 0 132.12012057416266 247.2" height="247.2" width="132.12012057416266"><g><svg></svg></g><g><svg viewBox="0 0 132.12012057416266 247.2" height="247.2" width="132.12012057416266"><g transform="matrix(1,0,0,1,0,47.215199999999996)"><svg viewBox="0 0 132.12012057416266 152.7696" height="152.7696" width="132.12012057416266"><g><svg viewBox="0 0 132.12012057416266 152.7696" height="152.7696" width="132.12012057416266"><g><svg viewBox="0 0 132.12012057416266 152.7696" height="152.7696" width="132.12012057416266"><g><svg viewBox="0 0 132.12012057416266 152.7696" height="152.7696" width="132.12012057416266"><g id="SvgjsG2644"><svg viewBox="0 0 132.12012057416266 152.7696" height="152.7696" width="132.12012057416266" id="SvgjsSvg2643"><g><svg viewBox="0 0 132.12012057416266 152.7696" height="152.7696" width="132.12012057416266"><g transform="matrix(1,0,0,1,0,0)"><svg width="132.12012057416266" viewBox="2.8 -38.6 36.150000000000006 41.8" height="152.7696" data-palette-color="url(#954a1253-2680-41f7-8107-5750fbf7787f)"><path d="M38.95-18.9Q38.95-14 37.4-9.93 35.85-5.85 32.8-3.2L32.8-3.2 38.45 3.2 32.55 3.2 29.1-0.85Q25.55 0.85 20.9 0.85L20.9 0.85Q15.05 0.85 10.98-1.73 6.9-4.3 4.85-8.78 2.8-13.25 2.8-18.9L2.8-18.9Q2.8-24.45 4.85-28.9 6.9-33.35 10.98-35.98 15.05-38.6 20.9-38.6L20.9-38.6Q26.7-38.6 30.75-35.98 34.8-33.35 36.88-28.88 38.95-24.4 38.95-18.9L38.95-18.9ZM7.8-18.9Q7.8-14.45 9.3-10.95 10.8-7.45 13.75-5.43 16.7-3.4 20.9-3.4L20.9-3.4Q23.75-3.4 26.05-4.4L26.05-4.4 19.6-11.85 25.3-11.85 29.6-6.85Q31.7-8.95 32.83-12.1 33.95-15.25 33.95-19.05L33.95-19.05Q33.95-23.35 32.4-26.83 30.85-30.3 27.9-32.33 24.95-34.35 20.9-34.35L20.9-34.35Q16.7-34.35 13.75-32.3 10.8-30.25 9.3-26.75 7.8-23.25 7.8-18.9L7.8-18.9Z" opacity="1" transform="matrix(1,0,0,1,0,0)" fill="black" class="wordmark-text-0" id="SvgjsPath2642"></path></svg></g></svg></g></svg></g></svg></g><g></g></svg></g></svg></g></svg></g><path d="M0 41.215L0 1 132.12 1 132.12 41.215 118.343 41.215 118.343 14.777 13.777 14.777 13.777 41.215 0 41.215M0 205.985L0 246.2 132.12 246.2 132.12 205.985 118.343 205.985 118.343 232.423 13.777 232.423 13.777 205.985 0 205.985" fill="black" stroke="transparent"></path></svg></g><defs><mask></mask></defs></svg><rect width="132.12012057416266" height="247.2" fill="black" stroke="none" visibility="hidden"></rect></g></mask></svg><rect width="132.12012057416266" height="247.2" fill="black" stroke="none" visibility="hidden"></rect></g></mask><linearGradient x1="0" x2="1" y1="0.578" y2="0.595" id="ff5ec6ac-c8f2-4333-bf24-735ff4d34ba4"><stop stop-color="#6ee2f5" offset="0"></stop><stop stop-color="#6454f0" offset="1"></stop></linearGradient></svg><rect width="132.12012057416266" height="247.2" fill="none" stroke="none" visibility="hidden"></rect></g></svg></g></svg>